<?xml version="1.0" encoding="utf-8"?><!DOCTYPE svg PUBLIC "-//W3C//DTD SVG 1.1//EN" "http://www.w3.org/Graphics/SVG/1.1/DTD/svg11.dtd"><svg version="1.1" id="Contours" xmlns="http://www.w3.org/2000/svg" xmlns:xlink="http://www.w3.org/1999/xlink" x="0px" y="0px" width="1682.671509px" height="1682.671509px" viewBox="-0.000007 0.000004 1682.671509 1421.423462" enable-background="new 0 0 1682.671509 1682.671509" xml:space="preserve" stroke="black" fill="none" stroke-linecap='round' stroke-linejoin='round'><path class="selected"  fill="currentColor" opacity="1.000000" stroke="none" 
 	d="
M580.602852 225.142086 C574.686226 234.044369 568.635200 242.473507 563.449897 251.405269 C556.929573 262.636837 550.879524 274.160763 545.077583 285.783748 C540.679329 294.594845 536.929695 303.733822 533.060981 312.799251 C532.633918 313.799923 533.322151 315.276546 533.493110 316.532406 C534.446418 316.029049 535.492317 315.646480 536.335334 314.999447 C538.788398 313.116756 540.913520 310.653255 543.602974 309.256588 C564.438911 298.436336 586.043403 289.424923 608.428352 282.304134 C614.902351 280.244686 621.315437 277.989559 627.815437 276.018917 C629.122444 275.622677 630.713203 276.019771 632.130867 276.280453 C632.349678 276.320736 632.645820 278.076473 632.392158 278.239559 C624.284736 283.452450 619.970405 291.907406 614.522407 299.318905 C598.233223 321.478939 584.182319 345.042049 572.110725 369.734615 C564.481636 385.339840 559.153633 401.829891 555.365120 418.788387 C551.677803 435.293819 548.389473 451.830440 548.248665 468.882870 C548.176521 477.611202 546.166816 486.367733 546.544685 495.045711 C547.174995 509.523372 548.767280 523.976864 550.410225 538.388607 C553.079231 561.802608 557.490059 584.935360 565.506721 607.122921 C570.521187 621.001339 577.057869 634.328487 582.826240 647.939083 C583.187141 648.790706 582.804145 649.957516 582.767280 650.977657 C581.726814 650.880184 580.411628 651.158626 579.687080 650.629024 C568.026252 642.106014 556.003730 633.995968 545.004341 624.680965 C538.554145 619.218563 533.645759 611.893062 528.248848 605.239315 C520.125557 595.224605 512.917915 584.611324 507.319099 572.923519 C500.456978 558.598568 495.934944 543.491939 492.481758 528.093929 C490.743049 520.340877 489.910225 512.310787 489.454658 504.360836 C488.738105 491.854793 487.646370 479.231746 488.589668 466.800594 C490.111091 446.750667 492.754158 426.742367 500.775215 407.930721 C503.794197 400.850338 506.446418 393.614193 509.400520 386.505001 C509.991523 385.082760 511.225837 383.935787 512.104438 382.622371 C512.709846 381.717403 513.213203 380.744137 513.762153 379.801388 C512.408638 379.548702 510.874153 378.752926 509.731697 379.133663 C503.448005 381.227535 497.095588 383.247127 491.079902 385.981136 C483.073127 389.620174 475.310615 393.810665 467.543525 397.952572 C465.729133 398.920223 464.379707 400.727596 462.693367 401.983333 C461.988533 402.508297 460.962715 402.602169 460.082832 402.892086 C459.839485 402.037838 459.300056 401.148372 459.396919 400.334530 C461.001655 386.851497 462.430122 373.340267 464.409065 359.910641 C467.919624 336.087581 474.169075 312.881832 481.420479 289.968929 C486.950996 272.493648 495.717842 256.439693 505.086189 240.796871 C513.120369 227.381832 521.863838 214.389767 530.362312 201.255001 C541.442329 184.130245 554.881782 168.989712 569.756721 155.113033 C571.744880 153.258297 574.583442 152.333462 576.950752 150.854122 C577.567939 150.468441 577.893379 149.615871 578.352852 148.977779 C577.783821 148.615871 577.194954 147.910610 576.648628 147.942135 C561.089790 148.839901 545.376777 145.808620 529.923042 149.737301 C529.035286 149.963009 527.333809 149.491421 527.019783 148.850246 C526.606880 148.007290 526.817756 146.389797 527.414192 145.597652 C531.263618 140.485195 534.905281 135.133571 539.333992 130.555904 C551.711494 117.761776 564.033699 104.865749 577.124702 92.821865 C595.937141 75.514339 615.259163 58.575161 637.779487 46.204952 C659.256355 34.407894 680.931587 22.636623 704.505623 15.473171 C718.073005 11.350399 732.087959 8.444362 746.083992 6.064419 C758.725654 3.914821 771.617744 3.245998 784.395027 1.882717 C790.124458 1.271389 795.835457 0.109737 801.568855 0.010952 C808.059089 -0.100834 814.567146 0.669338 821.062446 1.127285 C822.465095 1.226162 823.849495 1.873012 825.236763 1.854336 C839.171089 1.666866 852.914253 3.151577 866.591377 5.825741 C876.834785 7.828548 887.230537 9.041408 897.499214 10.928005 C923.981636 15.793392 949.348457 24.501095 974.244453 34.452633 C993.692939 42.226681 1012.447944 51.641109 1029.499458 63.955776 C1042.924751 73.651638 1055.264229 84.526699 1066.327949 97.052212 C1078.058540 110.332485 1087.261909 124.952602 1094.927314 140.772701 C1095.940010 142.862789 1098.506782 145.071682 1100.721748 145.561062 C1112.278022 148.114498 1122.160591 154.256069 1132.477485 159.503353 C1150.758979 168.801540 1167.195259 180.641231 1180.815010 195.989925 C1192.748481 209.438350 1203.084419 224.093624 1207.242134 241.986629 C1209.526802 251.818844 1210.820747 261.892696 1212.293159 271.897152 C1212.976509 276.540706 1212.951973 281.284359 1213.364326 285.972530 C1215.382148 308.908565 1209.092231 329.813045 1198.125190 349.666988 C1190.369941 363.706173 1180.968818 376.239620 1167.472603 385.307186 C1166.658149 385.854366 1166.098579 386.767696 1165.324409 387.391598 C1164.218330 388.282833 1163.023628 389.063961 1161.866645 389.892086 C1161.362007 388.437191 1160.500923 387.005123 1160.406196 385.523983 C1158.969917 363.069393 1150.133247 344.964046 1130.414009 332.840328 C1119.615425 326.201046 1108.034736 322.380489 1095.438179 321.954525 C1086.058784 321.637447 1076.561592 321.035396 1067.294014 322.101497 C1054.745430 323.545162 1042.866645 328.028560 1032.126899 334.771602 C1025.427803 338.977779 1019.046089 343.794857 1012.986763 348.890499 C1003.654854 356.738216 998.627754 367.550228 994.411445 378.645748 C989.219795 392.307552 987.317695 406.636043 988.474312 421.126400 C989.723945 436.781124 992.864570 452.128658 998.752632 466.825741 C1006.761665 486.816768 1017.375190 505.469417 1031.173530 521.796505 C1045.116523 538.294491 1060.484077 553.661739 1076.001167 568.727718 C1084.804390 577.274959 1095.171089 584.209408 1104.792427 591.921566 C1105.485298 592.476864 1105.840645 593.453304 1106.352852 594.233883 C1105.445991 594.786556 1104.505195 595.867794 1103.637642 595.811886 C1092.583320 595.099544 1081.591743 596.523311 1070.396797 594.210445 C1055.148994 591.060299 1040.988472 585.512508 1027.222847 578.800289 C1005.575508 568.245113 987.041450 553.279964 971.396187 535.152950 C959.805977 521.724300 949.630562 507.043392 941.995063 490.896480 C938.910835 484.374325 936.863838 477.361141 934.358467 470.566463 C933.984687 469.552791 933.918037 468.325069 933.284736 467.537716 C932.704780 466.816829 931.550483 466.557979 930.649360 466.095516 C930.374214 467.018062 929.671455 468.057308 929.886665 468.846065 C935.176338 488.228329 940.752754 507.490352 949.290962 525.799923 C959.015815 546.654049 970.740547 566.214229 985.736763 583.672176 C995.218574 594.710384 1004.513496 606.074886 1015.178413 615.896358 C1036.455635 635.490902 1059.121406 653.435604 1084.971260 666.882686 C1090.861641 669.946834 1096.834663 672.852352 1102.711006 675.942501 C1103.443550 676.327694 1104.292427 677.454769 1104.215156 678.139705 C1104.141670 678.790829 1102.951851 679.352535 1102.194770 679.868038 C1101.967109 680.023128 1101.544258 679.882992 1101.211250 679.893307 C1090.516426 680.225033 1079.800239 681.144710 1069.131904 680.754146 C1053.297310 680.174434 1037.692329 677.187984 1022.609687 672.453365 C1009.251777 668.260189 995.821846 663.761410 983.279609 657.643184 C968.209907 650.292110 954.052559 641.133785 941.096626 630.230282 C922.647041 614.703304 907.746895 596.329037 895.304512 575.762996 C885.984932 560.358578 878.339912 544.188900 872.434028 527.235103 C868.670845 516.432491 865.336494 505.447384 862.508735 494.365719 C861.017036 488.519954 861.035835 482.290401 860.349189 476.236873 C859.699653 470.511349 858.849922 464.801571 858.435493 459.059749 C858.267524 456.734127 859.087104 454.349361 859.342720 451.979183 C861.987861 427.446529 867.240303 403.552975 877.455757 380.986324 C879.562690 376.331966 883.053047 372.314449 885.750801 367.908504 C886.323188 366.973629 886.219307 365.624569 886.427070 364.466305 C885.386665 364.790584 883.970527 364.789913 883.364937 365.490169 C878.194526 371.468380 873.127388 377.537716 868.113228 383.648800 C858.225166 395.700130 849.674873 408.601925 842.971382 422.726681 C836.944099 435.426876 832.330452 448.525753 830.334175 462.497066 C829.101448 471.125423 826.631172 479.720699 826.574287 488.343075 C826.459053 505.844784 830.080146 522.887996 835.299690 539.627743 C844.114937 567.899349 858.015937 593.588985 874.821479 617.737972 C888.764473 637.773189 905.360054 655.599544 923.226875 672.176082 C939.800850 687.553341 958.178535 700.578609 977.814644 711.756222 C984.913643 715.797237 992.426216 719.109859 999.728950 722.796627 C1000.619697 723.246456 1001.379219 723.956173 1002.199531 724.545406 C1001.218818 724.994259 1000.262642 725.765499 999.253730 725.842159 C989.369941 726.591549 979.477974 727.235592 969.587227 727.889767 C954.336128 728.898678 939.096870 730.254635 923.828926 730.801510 C904.148018 731.506832 884.442207 731.856685 864.749580 731.778805 C853.190498 731.733028 841.613533 730.816402 830.085395 729.819942 C818.443306 728.813839 806.790291 727.613521 795.253242 725.793331 C780.960273 723.538570 766.804268 720.429561 752.547859 717.924312 C734.269050 714.712398 716.438118 709.845699 699.307075 702.800594 C681.696541 695.558346 663.755073 688.616695 648.712898 676.572323 C634.565010 665.244076 620.081428 653.943416 610.383247 638.254513 C600.493232 622.255367 592.901436 605.101375 589.463081 586.469173 C588.122322 579.203365 587.998909 571.710933 587.360664 564.318294 C586.984504 559.960262 586.065193 555.535579 586.479011 551.245907 C587.410164 541.593258 589.548408 532.042660 590.219734 522.382747 C591.069587 510.154537 594.692512 498.630855 598.557625 487.277218 C602.116584 476.822994 606.769600 466.610103 612.093025 456.924312 C617.438911 447.197628 623.402290 437.570370 630.552253 429.134640 C639.955513 418.040401 650.392952 407.728267 661.123420 397.883907 C669.448127 390.246456 678.762642 383.648983 687.903877 376.953365 C694.471626 372.142635 701.443733 367.876095 708.340217 363.533077 C709.111519 363.047359 710.566658 363.647335 711.704658 363.743892 C711.429756 364.450985 711.297371 365.264950 710.859138 365.849544 C698.690864 382.082088 690.880562 400.390316 685.060737 419.668880 C681.066169 432.901302 678.441536 446.377132 676.113105 460.017635 C673.194160 477.117122 674.300483 494.195980 674.673469 511.220760 C674.901069 521.611263 678.446785 531.904659 680.211372 542.291073 C683.838936 563.642818 692.074165 583.373775 702.580574 601.996639 C709.066719 613.493587 717.439460 624.001339 725.618904 634.441097 C730.984626 641.289425 737.341133 647.402462 743.564399 653.529476 C756.457405 666.223018 771.452339 676.181637 786.725776 685.695553 C795.430000 691.117428 804.330391 696.239376 813.306831 701.198726 C815.465645 702.391475 818.277900 702.401485 820.789619 702.955318 C818.864326 701.267574 817.132270 699.265743 814.982429 697.942928 C800.711372 689.161678 789.256782 677.409847 779.395454 664.071529 C769.002266 650.013912 760.411934 634.859066 752.964851 619.037105 C745.228218 602.600277 739.365974 585.536678 735.363716 567.831234 C732.578560 555.510128 729.942329 543.188656 730.237312 530.403866 C730.322822 526.697567 728.465767 522.958797 728.468574 519.235592 C728.474312 511.564022 729.009773 503.883846 729.565254 496.224544 C729.958992 490.795040 730.571907 485.368099 731.382332 479.984493 C734.963325 456.194759 740.420234 432.993587 750.603218 410.951107 C758.912117 392.965267 769.653572 376.796078 782.097358 361.465572 C797.206184 342.851742 815.058479 327.470516 835.164009 314.754696 C851.632759 304.339168 868.693794 294.773983 887.446357 288.960079 C904.608223 283.639278 921.799995 278.268307 939.263862 274.121456 C950.084297 271.552059 961.479683 271.506344 972.541694 269.830868 C992.711372 266.775936 1013.001777 267.657406 1033.215400 268.091244 C1049.850044 268.448299 1066.445259 270.578304 1083.060981 271.886104 C1097.391548 273.014095 1111.295845 276.232906 1124.809150 280.953121 C1140.508979 286.437130 1154.820869 294.314449 1166.000435 307.035579 C1166.435005 307.530147 1166.914863 307.984798 1167.350166 308.478756 C1168.346382 309.609676 1169.327949 310.753536 1170.315498 311.892086 C1170.661201 310.140316 1171.212227 308.399593 1171.307441 306.634334 C1171.471748 303.586178 1171.338203 300.522640 1171.355537 297.465694 C1171.416450 286.719723 1169.304512 276.350521 1166.132515 266.132625 C1164.431587 260.653255 1162.787056 255.133175 1161.563789 249.533932 C1159.534248 240.244930 1153.472480 233.327511 1147.994087 226.172603 C1138.736641 214.082393 1126.216865 205.663021 1112.802070 199.177364 C1100.366645 193.165218 1087.142158 188.666530 1074.008003 184.269710 C1067.669868 182.147945 1061.986274 186.390804 1057.149849 189.825863 C1044.438667 198.854000 1032.123726 208.449032 1019.793403 218.002132 C1008.450020 226.790584 995.533027 232.287350 982.119331 236.919857 C969.790596 241.177547 957.055244 243.326534 944.200752 241.744747 C918.246162 238.550899 896.695869 228.007015 885.397041 202.581966 C882.389351 195.813961 880.176826 188.843349 880.244819 181.172787 C880.319038 172.810360 879.254463 164.459041 882.129219 156.253475 C882.444404 155.353939 879.871284 152.368892 878.296211 152.052608 C866.851753 149.754055 855.295356 148.021480 843.822944 145.851986 C834.281562 144.047664 824.797737 141.931820 815.314277 139.837093 C814.241462 139.600155 813.335945 138.605953 812.352852 137.962887 C813.288765 137.272579 814.134590 136.374538 815.174385 135.923855 C826.910835 130.836910 839.322273 128.650997 851.911445 126.762356 C867.291328 124.455044 882.683418 123.242946 898.180122 124.010647 C902.970039 124.247951 907.704658 125.828975 912.439766 126.904598 C924.009956 129.532955 935.878486 131.301662 947.060615 135.088436 C968.940010 142.497677 990.426948 151.064113 1012.099678 159.088283 C1013.555488 159.627285 1015.378120 160.205257 1016.739570 159.796749 C1023.834053 157.667843 1030.821846 155.186245 1037.873970 152.911892 C1040.570015 152.042415 1041.164619 150.846981 1039.395454 148.387050 C1029.362983 134.437862 1017.693428 122.286922 1004.011177 111.664730 C991.014839 101.575008 977.218696 92.969448 962.287544 86.666683 C943.711128 78.825252 924.468086 72.523281 905.374214 65.959896 C890.140449 60.723415 874.011177 60.185848 858.262642 57.594143 C834.170784 53.629421 810.047126 53.558986 785.877876 54.078518 C774.740486 54.317898 763.631599 56.448665 752.535347 57.915218 C730.112251 60.878780 709.686042 69.971798 689.247444 78.922542 C672.592598 86.216244 657.423469 95.832607 643.686287 107.859279 C637.662483 113.133053 630.590034 117.200954 624.091499 121.950130 C623.217659 122.588802 622.918281 124.013637 622.352852 125.074398 C623.344490 125.346920 624.341133 125.873226 625.327095 125.853939 C639.522834 125.576381 653.718513 125.275142 667.910713 124.858242 C671.612373 124.749477 675.297371 124.127590 678.999946 123.957516 C679.986213 123.912197 681.009163 124.667019 682.015266 125.054500 C681.415413 125.879421 680.960212 126.883632 680.193794 127.502163 C670.213325 135.556484 659.905403 143.230984 650.245796 151.650417 C637.644905 162.633480 624.876838 173.560940 613.423347 185.686153 C601.780281 198.012081 591.647163 211.764400 580.602852 225.142086 M913.852852 185.892086 C918.276558 197.554622 927.106636 204.457821 938.486519 208.501949 C948.954902 212.222164 959.823555 213.650814 970.552437 210.703914 C977.897041 208.686580 984.779243 204.949703 991.791816 201.810787 C992.569038 201.462948 992.948066 200.024410 993.246528 199.013363 C993.293892 198.853267 991.964302 198.179073 991.211250 197.912227 C989.612129 197.345638 987.717476 197.253719 986.398384 196.323055 C982.230171 193.381923 978.689766 194.278316 974.600410 196.803341 C966.528999 201.786983 957.922187 203.997310 948.603340 199.908016 C929.454170 191.505031 922.419868 180.784756 924.489326 161.926143 C924.687812 160.117855 925.764351 158.112179 923.414131 158.055019 C920.408638 157.981960 914.769233 159.010525 914.748604 159.698299 C914.492256 168.275265 910.117256 176.684719 913.852852 185.892086 z"/><path class="selected"  fill="#000000" opacity="1.000000" stroke="none" 
 	d="
M984.102852 1349.642086 C969.646553 1357.431515 955.340889 1364.793453 941.311714 1372.648922 C938.221992 1374.378902 938.006294 1373.735348 937.303169 1370.981075 C934.422065 1359.696285 931.615303 1348.381466 928.294014 1337.222652 C922.693306 1318.406002 916.720405 1299.700069 910.909126 1280.945919 C909.719062 1277.105343 908.609565 1273.238155 907.329780 1269.427852 C907.041084 1268.568722 906.195747 1267.896480 905.606758 1267.138180 C904.928901 1268.296261 903.612373 1269.492306 903.678779 1270.605953 C904.052925 1276.871700 905.028511 1283.106319 905.295723 1289.372921 C905.822700 1301.723629 905.959175 1314.090328 906.367012 1326.446895 C906.979316 1345.001461 907.502876 1363.562252 908.456978 1382.100216 C908.771064 1388.202999 906.867744 1391.461422 901.035469 1393.954952 C888.571846 1399.283199 876.495552 1405.523311 864.300361 1411.471187 C858.748970 1414.178585 853.197212 1416.911007 847.817695 1419.937740 C842.056526 1423.178951 837.108467 1420.437496 832.174690 1418.154781 C816.369575 1410.842037 800.649299 1403.346065 784.884956 1395.944942 C783.913582 1395.488888 782.848823 1395.228634 781.822212 1394.893551 C774.444709 1392.485225 773.120674 1390.216183 773.296333 1382.471676 C773.526863 1372.312496 773.233467 1362.142696 773.380378 1351.980465 C773.609626 1336.120846 773.736580 1320.251095 774.451057 1304.410152 C774.936897 1293.637203 776.458320 1282.914058 777.268318 1272.150020 C777.440376 1269.863643 776.535469 1267.496090 776.126716 1265.166012 C775.066414 1267.043575 773.643684 1268.805416 773.000801 1270.816524 C764.438728 1297.603756 755.959480 1324.417843 747.526191 1351.245968 C745.668464 1357.155636 743.446785 1363.055416 742.556526 1369.130367 C741.883796 1373.720699 739.163765 1372.293819 737.557563 1371.431026 C715.733040 1359.708858 694.035469 1347.750606 672.272102 1335.913936 C668.342964 1333.776974 669.084968 1331.165279 670.755500 1327.938717 C683.539497 1303.247433 696.476875 1278.630977 708.880012 1253.748653 C718.573616 1234.302120 727.757393 1214.593990 736.820747 1194.842892 C744.911567 1177.210933 752.402290 1159.304317 760.431831 1141.643673 C762.731819 1136.584957 766.334114 1133.596798 772.944160 1133.709347 C799.097053 1134.154415 825.264778 1134.123775 851.421333 1133.804683 C866.980659 1133.614864 882.560493 1132.956417 898.070747 1131.739742 C907.053291 1131.035030 911.829658 1135.376217 915.517646 1142.525265 C923.736274 1158.456539 932.113105 1174.306148 940.342598 1190.231808 C954.241890 1217.129635 968.072212 1244.063106 981.940742 1270.976803 C988.733955 1284.160396 995.569282 1297.322262 1002.343818 1310.515377 C1005.728462 1317.106441 1009.096504 1323.709225 1012.255928 1330.408565 C1012.653145 1331.250850 1012.107979 1333.350704 1011.361030 1333.795406 C1002.428413 1339.111812 993.374824 1344.225460 984.102852 1349.642086 z"/><path class="selected"  fill="#000000" opacity="1.000000" stroke="none" 
 	d="
M850.352852 962.892086 C850.352852 990.555050 850.278511 1017.718624 850.436958 1044.880611 C850.459419 1048.741573 849.517769 1050.061764 845.484565 1049.983028 C832.824470 1049.735714 820.156501 1049.897823 807.491523 1049.889400 C802.039131 1049.885860 800.354194 1048.131954 800.354072 1042.482174 C800.352241 968.992061 800.352852 895.502071 800.352852 822.011959 C800.352852 814.306881 804.352791 811.194210 811.794990 812.827267 C813.757393 813.257808 815.894539 812.892086 817.951423 812.892086 C822.174690 812.892086 826.397895 812.892086 830.621162 812.892086 C837.177437 812.892086 843.737007 812.762447 850.289009 812.930172 C856.321357 813.084469 862.375312 813.319210 868.351997 814.062740 C869.820991 814.245479 871.605293 816.309933 872.264717 817.912350 C880.173530 837.133785 887.989448 856.394771 895.644722 875.718746 C903.982002 896.764034 912.121162 917.887813 920.365669 938.969845 C920.757393 939.971798 921.334419 940.901241 921.825264 941.864498 C922.532173 940.842525 923.490303 939.913570 923.907783 938.784664 C928.769966 925.631222 933.422187 912.399288 938.383735 899.284054 C945.358711 880.847164 952.541328 862.488643 959.647407 844.101436 C962.867134 835.770138 966.189521 827.477657 969.322212 819.114010 C970.908149 814.880489 973.557319 812.728390 978.254951 812.842037 C985.916084 813.027340 993.585029 812.892086 1001.250679 812.892086 C1010.973213 812.892086 1020.696357 812.828609 1030.417671 812.937740 C1032.782661 812.964351 1035.190620 813.376095 1037.475898 813.992550 C1038.262642 814.204464 1039.009102 815.498897 1039.280952 816.441158 C1039.591621 817.518062 1039.352852 818.753414 1039.352852 819.919918 C1039.352852 894.243282 1039.352852 968.566524 1039.352852 1042.889889 C1039.352852 1049.537350 1039.000801 1049.891964 1032.392280 1049.892086 C1019.893989 1049.892330 1007.395698 1049.906246 994.897407 1049.884762 C990.390083 1049.877071 988.361396 1047.869259 988.360298 1043.387813 C988.348213 997.394039 988.331978 951.400265 988.395942 905.406490 C988.400581 902.044674 989.207832 898.685665 989.247749 895.320797 C989.261177 894.185299 988.054145 893.035396 987.404731 891.892086 C986.720771 892.834102 985.726875 893.680050 985.399849 894.733028 C980.996650 908.914181 977.043281 923.245357 972.274238 937.300289 C963.852241 962.120235 954.906929 986.762325 946.266182 1011.508785 C943.353462 1019.850704 943.472114 1019.892086 934.065254 1019.892086 C924.733223 1019.892086 915.382881 1019.542965 906.075996 1020.026485 C900.706611 1020.305294 898.040474 1017.658809 896.464668 1013.430050 C891.836372 1001.009395 887.523750 988.471554 882.964668 976.024776 C875.598945 955.914913 868.047310 935.872799 860.757759 915.735592 C858.025459 908.187374 855.864814 900.433468 853.300117 892.821651 C852.823066 891.405758 851.661689 890.220577 850.816230 888.928829 C850.328437 890.393307 849.403145 891.862179 849.418403 893.321285 C849.658516 916.345577 850.019478 939.368770 850.352852 962.892086 z"/><path class="selected"  fill="#000000" opacity="1.000000" stroke="none" 
 	d="
M1134.102852 903.142086 C1133.019478 899.737911 1132.308418 896.543331 1131.282417 893.453121 C1130.951973 892.458004 1129.792671 891.737911 1129.012520 890.892086 C1128.459297 891.798214 1127.377144 892.740352 1127.435981 893.604854 C1127.929268 900.848385 1128.645454 908.076534 1129.259956 915.312252 C1129.371650 916.626949 1129.349434 917.955074 1129.349556 919.276974 C1129.353706 960.769039 1129.310859 1002.261226 1129.415229 1043.753048 C1129.426216 1048.092525 1128.144600 1050.028194 1123.528389 1049.958858 C1110.700264 1049.766353 1097.866279 1049.789181 1085.037422 1049.949947 C1080.752876 1050.003658 1079.185981 1048.287716 1079.302925 1044.112057 C1079.489448 1037.451778 1079.352852 1030.782711 1079.352852 1024.117306 C1079.352852 1001.897701 1079.407417 979.677975 1079.307563 957.458858 C1079.287178 952.929683 1078.387886 948.400753 1078.424263 943.876095 C1078.475898 937.455929 1079.198799 931.043087 1079.310371 924.621334 C1079.474678 915.178341 1079.471260 905.728390 1079.309639 896.285396 C1079.208198 890.363643 1078.511543 884.452267 1078.394844 878.530147 C1078.229438 870.144527 1078.226631 861.750728 1078.393745 853.365230 C1078.522773 846.886104 1079.216865 840.416500 1079.282173 833.938839 C1079.324531 829.748165 1078.464180 825.553829 1078.403755 821.355465 C1078.307075 814.641964 1080.212837 812.893917 1086.936104 812.892818 C1101.823677 812.890377 1116.711372 812.892086 1131.598945 812.892086 C1134.655464 812.892086 1137.750557 812.588863 1140.758613 812.970577 C1144.320869 813.422725 1147.719551 813.531978 1149.515571 818.294430 C1155.761055 834.854976 1162.766182 851.127071 1169.330757 867.569332 C1176.067573 884.443233 1182.694526 901.361934 1189.231636 918.314205 C1192.114448 925.790523 1194.624214 933.410030 1197.400703 940.928585 C1197.688789 941.708614 1198.641060 942.243526 1199.284980 942.892086 C1199.640937 942.150509 1200.048652 941.429073 1200.345161 940.664547 C1210.538398 914.392330 1220.748726 888.126705 1230.893745 861.835811 C1236.438423 847.467281 1241.903633 833.067623 1247.331001 818.654415 C1248.821357 814.696529 1251.882515 812.992916 1255.716743 812.949093 C1268.712593 812.800167 1281.711128 812.892086 1294.708687 812.892086 C1299.598213 812.892086 1304.488960 812.823116 1309.376899 812.909420 C1315.547065 813.018307 1316.352852 813.880855 1316.352852 819.878536 C1316.352852 880.033687 1316.352852 940.188839 1316.352852 1000.343990 C1316.352852 1015.007808 1316.205391 1029.674190 1316.445869 1044.333980 C1316.514839 1048.541500 1315.592231 1050.119259 1311.029731 1050.002315 C1298.540352 1049.682247 1286.037300 1049.896602 1273.539741 1049.889767 C1268.471870 1049.886959 1266.377998 1047.799557 1266.365547 1042.531124 C1266.329658 1027.367428 1266.352852 1012.203609 1266.352852 997.039913 C1266.352852 968.378780 1266.253975 939.716915 1266.442939 911.057003 C1266.477363 905.830074 1267.787422 900.619991 1268.269844 895.380245 C1268.369697 894.295528 1267.408516 893.112911 1266.936226 891.975460 C1266.075020 892.700924 1264.735420 893.267940 1264.433540 894.178829 C1262.923774 898.733761 1261.868721 903.441036 1260.323555 907.982418 C1249.044380 941.132320 1237.695991 974.259029 1226.332954 1007.380367 C1225.485298 1009.851192 1224.290596 1012.200802 1223.366645 1014.648067 C1221.696235 1019.072262 1217.656074 1019.674557 1213.965034 1019.784786 C1203.642891 1020.092769 1193.303413 1020.015377 1182.975044 1019.843746 C1177.189644 1019.747555 1175.063789 1015.204586 1173.385444 1010.696529 C1164.085640 985.717892 1154.836250 960.720333 1145.682686 935.687740 C1141.764961 924.974239 1138.121040 914.160396 1134.102852 903.142086 z"/><path class="selected"  fill="#000000" opacity="1.000000" stroke="none" 
 	d="
M487.102852 1347.642086 C478.832649 1347.538570 470.408882 1348.629268 462.877937 1346.524776 C448.097664 1342.394771 439.602913 1331.195553 435.363472 1316.708980 C432.970466 1308.531734 434.382209 1300.490719 437.089424 1292.755245 C441.197029 1281.018551 448.733345 1271.988033 460.487983 1267.352535 C475.233833 1261.537472 489.523811 1262.309200 502.781013 1271.804928 C503.536079 1272.345699 504.428230 1272.695431 505.180732 1273.239254 C507.753059 1275.098018 510.525093 1278.803097 512.792915 1278.508541 C517.183357 1277.938228 521.520698 1275.514767 525.429084 1273.122555 C528.712043 1271.113033 531.460701 1268.166378 534.263923 1265.447140 C558.529731 1241.906856 582.700874 1218.268917 607.021309 1194.785152 C615.038398 1187.043819 623.398750 1179.657467 631.628120 1172.137081 C633.106514 1170.786129 634.712043 1169.574215 636.258857 1168.298092 C634.091072 1168.162838 631.918159 1167.857174 629.756416 1167.921993 C621.058967 1168.182857 612.367256 1168.660030 603.668831 1168.845943 C599.771797 1168.929439 596.673591 1170.040767 593.781624 1172.856441 C576.722908 1189.465572 559.690986 1206.111202 542.254219 1222.318844 C534.078804 1229.917843 523.877388 1233.599850 512.594062 1233.895016 C500.341316 1234.215572 488.087898 1234.874386 475.837043 1234.823604 C453.307502 1234.730343 430.778633 1234.281124 408.251716 1233.863766 C399.719856 1233.705684 391.194282 1232.973263 382.665413 1232.965206 C374.637153 1232.957638 366.596321 1233.405758 358.590461 1234.029781 C357.106453 1234.145504 355.326362 1235.769771 354.421272 1237.173824 C346.600105 1249.306759 336.688850 1257.804683 321.629554 1260.045040 C301.001106 1263.113888 286.593391 1254.675777 278.750251 1239.450313 C268.014656 1218.609859 275.679084 1193.665401 296.704719 1182.414303 C311.122688 1174.699337 333.201301 1175.196651 344.405342 1188.477901 C346.768562 1191.279171 348.711372 1194.456295 351.232185 1197.092892 C352.279792 1198.188839 354.512458 1199.092647 355.904243 1198.772213 C369.200874 1195.709957 382.678352 1195.909298 396.188850 1195.839474 C429.718147 1195.666012 463.246101 1195.222408 496.774666 1194.895260 C501.489143 1194.849361 506.670967 1196.083126 510.803169 1194.520626 C516.240181 1192.464962 521.381477 1188.802486 525.716560 1184.816158 C537.541572 1173.942013 548.640327 1162.276363 560.500190 1151.442623 C566.940498 1145.559566 573.883369 1139.893429 581.471870 1135.713253 C586.872993 1132.738033 593.663520 1131.562740 599.950142 1131.071773 C612.097358 1130.123043 624.324836 1130.052608 636.522224 1129.933834 C653.520515 1129.768184 670.522041 1129.838253 687.521309 1129.945064 C690.360725 1129.962887 693.344124 1130.245235 696.004219 1131.155758 C703.095771 1133.583248 706.641548 1140.846554 702.778389 1147.785518 C699.199348 1154.213985 695.288826 1160.683101 690.380684 1166.097896 C681.344307 1176.067135 671.570869 1185.380489 661.922249 1194.780025 C641.526008 1214.650020 621.058479 1234.447750 600.529060 1254.180294 C588.409187 1265.829586 576.269539 1277.467403 563.841682 1288.784298 C556.096260 1295.837154 548.079963 1302.671383 539.615425 1308.819332 C535.899971 1311.518184 530.815437 1313.366451 526.258125 1313.579464 C521.744575 1313.790401 519.798774 1315.703487 518.662727 1319.146725 C513.578560 1334.556515 502.034553 1342.685177 487.102852 1347.642086 M325.852882 1226.892086 C326.686195 1223.249752 328.059120 1219.633785 328.238807 1215.959469 C328.595771 1208.660885 320.272529 1202.272945 313.104194 1203.892208 C307.579811 1205.140133 303.005958 1209.644771 302.352821 1214.481197 C301.280983 1222.418453 303.804756 1227.242794 310.725471 1230.788326 C314.775551 1232.863033 320.191200 1232.172115 325.852882 1226.892086 M483.852852 1316.892086 C490.493660 1312.242061 491.959419 1305.831783 487.264106 1298.587276 C484.117378 1293.732174 477.202461 1289.108517 469.552314 1293.780147 C463.649910 1297.384395 461.655342 1305.579342 464.414253 1311.295528 C467.138374 1316.939815 473.078010 1321.458370 483.852852 1316.892086 z"/><path class="selected"  fill="#000000" opacity="1.000000" stroke="none" 
 	d="
M1389.102852 1253.642086 C1379.810859 1261.168697 1369.167427 1262.299434 1358.460518 1260.302608 C1344.055244 1257.615963 1333.421333 1249.158809 1326.082100 1236.335201 C1324.508369 1233.585445 1321.823311 1230.420894 1317.402656 1232.821163 C1316.501533 1233.310299 1315.107856 1232.892086 1313.941230 1232.892086 C1298.775459 1232.892086 1283.608101 1232.762813 1268.444282 1232.930782 C1254.914375 1233.080440 1241.389473 1233.619869 1227.860176 1233.877804 C1207.500312 1234.266109 1187.135566 1234.918453 1166.779487 1234.730831 C1157.484565 1234.645260 1149.033516 1230.515011 1142.257759 1224.166378 C1125.372261 1208.344356 1108.808540 1192.178951 1092.113350 1176.153805 C1087.810981 1172.024166 1083.081367 1169.672970 1076.707344 1169.713497 C1068.155220 1169.767818 1059.599556 1168.483272 1051.034004 1167.964840 C1049.575752 1167.876705 1048.059517 1168.747310 1046.570015 1169.174923 C1047.701362 1170.117672 1048.872139 1171.017330 1049.957100 1172.010616 C1054.313789 1175.999019 1058.765693 1179.893551 1062.961128 1184.046261 C1075.516182 1196.473507 1087.840889 1209.135738 1100.490791 1221.464718 C1115.988472 1236.569698 1131.498359 1251.678463 1147.492988 1266.247433 C1152.377388 1270.696285 1156.605781 1276.587887 1164.295845 1277.524898 C1167.691597 1277.938595 1170.244209 1277.671139 1172.491890 1275.240963 C1191.096138 1255.127193 1230.582710 1263.215450 1241.506538 1287.769527 C1248.367500 1303.191524 1249.075752 1317.770626 1239.265083 1331.803219 C1232.244453 1341.845211 1222.464668 1347.799923 1209.802559 1347.869259 C1200.993843 1347.917476 1191.926948 1349.173702 1183.973579 1343.873409 C1174.545845 1337.590572 1166.039741 1330.593990 1163.170601 1318.709225 C1162.710762 1316.804561 1160.086250 1314.631588 1158.036445 1314.027218 C1142.116401 1309.332149 1129.214668 1300.076534 1117.512642 1288.641598 C1106.802192 1278.175411 1095.596992 1268.217281 1084.827827 1257.809688 C1068.359932 1241.894283 1052.148384 1225.713863 1035.698921 1209.779415 C1020.633247 1195.185543 1005.063667 1181.093746 990.408760 1166.103512 C985.034126 1160.605831 980.799873 1153.553219 977.574165 1146.509762 C973.824043 1138.320797 979.979683 1129.997188 989.111885 1129.943844 C1014.609565 1129.795040 1040.157417 1128.966915 1065.585884 1130.301143 C1077.443550 1130.923336 1090.222603 1130.340694 1101.171211 1136.949215 C1106.421211 1140.118160 1111.703071 1143.444210 1116.268745 1147.490841 C1124.796699 1155.049068 1132.801582 1163.196407 1141.044746 1171.077022 C1147.842842 1177.575802 1154.294990 1184.520870 1161.652290 1190.313350 C1165.074165 1193.007198 1170.188911 1194.130001 1174.698677 1194.716305 C1180.327095 1195.447994 1186.122871 1194.892086 1191.846382 1194.892086 C1223.177925 1194.892086 1254.509956 1194.810055 1285.840889 1194.937984 C1296.370063 1194.981075 1306.899360 1195.504024 1317.423530 1195.931881 C1319.947456 1196.034542 1322.758857 1196.038692 1324.892158 1197.142818 C1328.095527 1198.800411 1329.803535 1197.075313 1331.305000 1195.147457 C1337.624702 1187.032467 1344.741401 1180.152340 1355.409126 1178.342159 C1376.781807 1174.715328 1398.153633 1184.080318 1404.519355 1207.308224 C1407.849556 1219.460689 1405.348701 1230.430050 1400.132270 1240.928463 C1397.765327 1245.692257 1393.019478 1249.274044 1389.102852 1253.642086 M1354.852852 1226.892086 C1355.654121 1227.359981 1356.534492 1227.730953 1357.244087 1228.311031 C1363.114448 1233.107784 1372.273018 1231.089718 1376.599434 1225.039913 C1380.329048 1219.824215 1380.045479 1212.108028 1374.008979 1207.003658 C1366.476387 1200.634273 1355.184272 1204.141353 1352.073433 1213.514889 C1350.410103 1218.526729 1353.214790 1222.182979 1354.852852 1226.892086 M1212.852852 1314.892086 C1217.002998 1310.888424 1218.517646 1306.173336 1216.328560 1300.687130 C1213.483711 1293.557369 1208.374702 1291.116939 1200.838691 1291.884884 C1196.982612 1292.277950 1189.830757 1300.716793 1190.211494 1305.387935 C1190.653755 1310.817379 1193.212104 1314.317501 1197.638496 1316.891964 C1202.906318 1319.956051 1207.823066 1319.571163 1212.852852 1314.892086 z"/><path class="selected"  fill="#000000" opacity="1.000000" stroke="none" 
 	d="
M1224.102852 708.642086 C1209.399849 722.678219 1195.205391 736.750484 1180.392036 750.137691 C1172.187812 757.551998 1161.988960 759.315059 1151.071235 756.927364 C1139.360176 754.366329 1137.376533 739.803463 1144.955513 732.568233 C1160.982124 717.268429 1176.406807 701.338192 1192.078437 685.666561 C1207.632270 670.112728 1222.942085 654.304256 1238.820991 639.089840 C1250.462837 627.935177 1262.430244 617.029842 1275.042549 607.007503 C1284.911079 599.165401 1297.015205 595.763180 1309.522163 593.787655 C1318.307197 592.400020 1326.899849 589.835384 1335.648506 588.163509 C1344.349067 586.500912 1353.143135 585.331478 1361.885200 583.880489 C1367.951851 582.873531 1373.994697 581.722957 1380.058418 580.697506 C1385.830513 579.721432 1391.618843 578.841488 1397.394722 577.887325 C1403.316475 576.909054 1409.247383 575.975887 1415.146431 574.873592 C1425.495186 572.939693 1435.823799 570.897762 1446.158882 568.890743 C1461.581123 565.895992 1476.983223 562.793087 1492.428169 559.920223 C1507.463447 557.123775 1522.516304 554.402279 1537.609443 551.942440 C1549.376167 550.024654 1561.215767 548.554867 1573.024482 546.895199 C1575.549629 546.540340 1578.210395 546.592586 1580.561470 545.759395 C1582.060615 545.228206 1583.942085 543.579464 1584.227119 542.148067 C1588.294746 521.715267 1598.909980 506.792293 1619.622871 501.027462 C1629.526436 498.270992 1639.768989 498.983639 1649.402168 502.943172 C1663.732246 508.833248 1675.057441 517.927852 1679.504219 533.569454 C1684.147651 549.903072 1684.658149 565.874264 1674.336982 580.558773 C1666.530464 591.665218 1655.711128 597.434505 1642.377998 600.061519 C1622.585029 603.961239 1607.359443 596.250423 1594.090278 582.937252 C1590.153022 578.986873 1586.414497 581.489376 1582.838691 582.082821 C1573.588203 583.617855 1564.474556 585.961666 1555.284126 587.876095 C1546.372627 589.732418 1537.435493 591.466244 1528.506172 593.235836 C1517.262275 595.464046 1506.027168 597.739925 1494.765083 599.872982 C1484.239326 601.866573 1473.696602 603.778805 1463.136421 605.580623 C1454.082954 607.125179 1444.980781 608.382931 1435.924873 609.913753 C1426.135444 611.568477 1416.374946 613.393429 1406.601631 615.143429 C1397.758979 616.726803 1388.911201 618.282467 1380.075020 619.901424 C1374.200020 620.977840 1368.349556 622.188839 1362.473457 623.259029 C1353.787422 624.840938 1345.083687 626.325374 1336.395820 627.898067 C1322.288520 630.451717 1308.034004 632.478145 1294.944770 638.852352 C1293.542305 639.535335 1292.234810 640.560665 1291.121650 641.667110 C1279.558906 653.158748 1268.045234 664.699581 1256.518135 676.226925 C1245.796333 686.948726 1235.074653 697.670406 1224.102852 708.642086 z"/><path class="selected"  fill="#000000" opacity="1.000000" stroke="none" 
 	d="
M582.352791 948.892086 C585.686104 938.110836 588.906074 927.791012 592.383003 917.558712 C596.250984 906.175899 600.390876 894.885860 604.344307 883.531734 C610.935432 864.602047 617.470894 845.652706 624.034553 826.713375 C624.791572 824.529171 625.954963 822.409908 626.280098 820.166378 C627.143196 814.210811 631.165840 812.910396 636.198188 812.900631 C649.359443 812.875240 662.521614 812.812374 675.681770 812.937984 C679.935127 812.978634 684.232063 813.287472 688.407478 814.038570 C689.878669 814.303097 691.734749 816.010982 692.250618 817.471309 C701.391670 843.348263 710.417305 869.266475 719.335701 895.221187 C729.409919 924.539913 739.291023 953.925167 749.374092 983.240841 C756.293281 1003.357662 763.429207 1023.399898 770.432747 1043.487789 C772.015205 1048.026607 770.793281 1049.863766 766.177192 1049.877071 C752.016426 1049.917965 737.854316 1049.797848 723.695320 1049.960933 C720.313545 1049.999752 718.386787 1048.381832 717.403022 1045.668697 C712.884407 1033.206905 708.540535 1020.681881 704.144600 1008.175777 C703.837043 1007.300655 703.614937 1006.395748 703.352852 1005.504635 C702.333564 1002.037960 700.851020 999.753170 696.418525 999.791744 C672.263496 1000.002804 648.104072 1000.034176 623.950020 999.773556 C619.051155 999.720821 616.752998 1002.062374 615.392769 1005.941402 C610.952949 1018.603267 606.790474 1031.362789 602.286445 1044.001217 C601.010200 1047.582393 598.812690 1050.117672 594.085945 1050.001949 C581.099006 1049.683712 568.099189 1049.904903 555.104438 1049.885860 C549.896553 1049.878292 548.628975 1048.388302 550.239753 1043.548336 C558.765510 1017.930660 567.368110 992.338253 576.013252 966.760616 C577.986152 960.923702 580.232368 955.179073 582.352791 948.892086 M672.352852 910.392086 C671.647346 907.686642 671.014045 904.959835 670.223396 902.279415 C667.336311 892.492061 661.698555 883.547115 661.278755 872.982906 C661.250129 872.264400 660.160530 871.588009 659.564338 870.892086 C658.827156 871.613521 657.668464 872.214229 657.421272 873.076290 C655.837227 878.599239 654.683418 884.252071 652.962166 889.728267 C646.851448 909.170040 640.504341 928.537472 634.392280 947.978756 C632.535530 953.884762 632.750679 953.911617 639.052620 953.900509 C653.708259 953.874630 668.366951 953.727901 683.017830 953.993892 C687.319282 954.072017 687.281013 952.260738 686.255317 949.307003 C681.806221 936.495601 677.323433 923.696041 672.352852 910.392086 z"/><path class="selected"  fill="#000000" opacity="1.000000" stroke="none" 
 	d="
M188.102852 560.142086 C204.706001 563.558773 221.021217 566.940975 237.424202 569.824276 C250.702217 572.158321 264.115181 573.716793 277.413002 575.948787 C287.631233 577.663936 297.729652 580.089474 307.943672 581.834225 C317.343818 583.439876 326.861824 584.354793 336.263191 585.954342 C344.289863 587.319942 352.234016 589.181881 360.197517 590.903744 C369.059517 592.819759 378.167793 594.060787 386.674995 597.017086 C394.479988 599.729305 402.476753 603.259945 408.885994 608.330013 C421.779121 618.529293 433.863960 629.792354 445.884041 641.042049 C459.195259 653.500118 472.132515 666.361934 485.088630 679.193294 C490.820381 684.869808 496.052070 691.050533 501.772224 696.739498 C509.383918 704.309566 517.386055 711.488643 524.951484 719.102901 C528.808418 722.984981 532.247688 727.321651 535.566353 731.687984 C538.997810 736.202755 539.721443 741.458492 537.115486 746.494137 C534.274116 751.984249 529.725471 755.162350 523.182441 756.017330 C513.099373 757.335079 505.860176 753.036739 499.136055 746.256710 C474.493110 721.408199 449.948005 696.452267 424.828071 672.091610 C412.127021 659.774471 398.709602 648.080379 384.709297 637.279964 C379.658027 633.383114 372.071357 632.356685 365.440620 631.010738 C351.989265 628.280453 338.384407 626.315426 324.874122 623.862606 C314.676704 622.011287 304.561226 619.698726 294.349098 617.941097 C281.547249 615.737789 268.648750 614.090755 255.858741 611.826290 C246.462043 610.162472 237.218788 607.632625 227.822609 605.965084 C218.435005 604.299068 208.932106 603.292537 199.499275 601.867672 C193.571998 600.972286 187.675728 599.866451 181.774360 598.805965 C172.783668 597.190304 163.791420 595.580562 154.817207 593.876766 C147.726143 592.530514 140.645942 591.117855 133.588569 589.605709 C125.031135 587.772030 116.501930 585.806331 107.962135 583.890621 C103.541633 582.898922 98.880470 582.467830 94.775673 580.727535 C90.797767 579.041073 88.728065 580.853084 86.520973 583.250606 C80.387886 589.912838 73.235374 594.663570 64.779594 598.358883 C54.873420 602.688167 45.422111 602.138546 35.664238 599.642635 C21.132652 595.925533 10.007179 587.757320 3.753212 573.765926 C0.732628 567.008175 0.084755 559.997799 0.008232 552.509395 C-0.066887 545.160457 0.338508 538.044552 2.626365 531.269771 C7.690834 516.273128 18.744987 506.794674 33.384178 502.024776 C50.892738 496.319942 67.237098 499.748958 80.864143 512.151974 C89.110206 519.657284 93.846565 529.643978 96.533973 540.607235 C97.038185 542.664242 99.651252 545.263912 101.701912 545.705257 C112.637794 548.059383 123.689338 549.896480 134.730110 551.736812 C143.803138 553.249142 152.927528 554.451107 162.009132 555.914974 C168.073097 556.892452 174.091285 558.152340 180.151588 559.155025 C182.689827 559.575008 185.284065 559.656673 188.102852 560.142086 z"/><path class="selected"  fill="#000000" opacity="1.000000" stroke="none" 
 	d="
M413.352852 1049.892086 C403.190986 1049.892086 393.524177 1049.711666 383.869514 1049.975338 C379.623542 1050.091183 378.646858 1047.812008 378.363228 1044.445919 C378.293586 1043.618892 378.352852 1042.780880 378.352852 1041.947994 C378.352852 968.151241 378.352607 894.354610 378.353340 820.557857 C378.353401 814.809933 380.286995 812.908443 386.230659 812.897213 C396.225715 812.878292 406.222358 812.787350 416.215156 812.937252 C421.078499 813.010006 425.976020 813.298214 430.767769 814.058224 C432.126228 814.273556 433.348640 816.379024 434.274849 817.844234 C434.726265 818.558346 434.352852 819.793819 434.352852 820.793331 C434.352852 879.264278 434.408699 937.735470 434.245613 996.206051 C434.232734 1000.827022 435.418770 1002.047237 440.041633 1002.003780 C465.027046 1001.768062 490.015754 1001.890011 515.003364 1001.893673 C520.582100 1001.894527 522.346992 1003.620113 522.350532 1009.086666 C522.358223 1020.914181 522.135750 1032.747555 522.462715 1044.566036 C522.588752 1049.121822 521.007515 1050.001461 516.801704 1049.981930 C482.486030 1049.822262 448.169258 1049.892086 413.352852 1049.892086 z"/><path class="selected"  fill="#000000" opacity="1.000000" stroke="none" 
 	d="
M1295.602852 695.142086 C1303.490547 687.587765 1310.909370 680.029903 1318.900459 673.135128 C1321.266304 671.093807 1325.222725 670.120968 1328.487251 670.033138 C1341.307197 669.688289 1354.221260 668.965694 1366.956855 670.057796 C1413.814155 674.076107 1460.727607 670.762935 1507.597847 671.832393 C1512.447944 671.943050 1517.331978 671.364132 1522.172432 670.846065 C1525.727119 670.465572 1527.731758 667.936153 1529.375190 664.947262 C1537.787056 649.649044 1550.839424 642.226620 1568.214302 642.947933 C1586.013130 643.686764 1602.000679 657.191585 1606.545723 674.954159 C1610.020210 688.533199 1607.870796 700.548458 1600.297187 711.810543 C1594.966499 719.737423 1587.256538 724.659542 1578.191963 727.569332 C1561.179878 733.030392 1546.943306 727.623043 1534.350044 716.261837 C1532.041938 714.179561 1530.067939 711.438717 1528.742134 708.623897 C1526.804145 704.509395 1523.822822 703.611324 1519.702827 703.844234 C1511.019355 704.334957 1502.322944 704.748592 1493.627876 704.848812 C1479.634224 705.010006 1465.636299 704.773006 1451.642280 704.919369 C1429.619941 705.149776 1407.595283 705.398433 1385.579292 705.947323 C1370.353340 706.326839 1355.136909 707.161983 1339.926704 707.989132 C1338.389351 708.072872 1336.633003 709.213131 1335.472480 710.362179 C1321.501655 724.194576 1307.728828 738.229244 1293.611519 751.908932 C1291.438057 754.015133 1287.822944 755.627804 1284.823066 755.716060 C1271.172554 756.117306 1257.503608 755.911617 1243.841621 755.857296 C1242.677803 755.852657 1241.515693 755.356808 1240.352852 755.089107 C1240.895332 753.647701 1241.064644 751.854854 1242.038887 750.819942 C1250.537666 741.791012 1259.122627 732.840816 1267.798042 723.981075 C1275.491157 716.124508 1283.359565 708.439815 1291.084907 700.614620 C1292.657417 699.021725 1293.937812 697.140377 1295.602852 695.142086 z"/><path class="selected"  fill="#000000" opacity="1.000000" stroke="none" 
 	d="
M370.602852 678.642086 C391.589485 700.628719 412.304390 722.386226 433.092781 744.073238 C435.442573 746.524654 438.240913 748.541744 440.755745 750.842647 C441.431038 751.460445 441.828071 752.382564 442.352852 753.164913 C441.497871 753.407223 440.654426 753.803219 439.786140 753.868526 C430.400825 754.572994 421.016609 755.314815 411.620979 755.851436 C407.411934 756.091793 403.164314 755.680294 398.958503 755.947384 C394.066536 756.257931 390.312263 754.444454 386.953865 751.040523 C377.123848 741.077144 367.273811 731.129879 357.241218 721.371944 C353.315742 717.553951 349.059822 714.010494 344.607246 710.827389 C342.434639 709.274288 339.522224 708.272579 336.845833 708.003048 C330.186134 707.332638 323.472999 707.119503 316.775459 706.914425 C303.419075 706.505611 290.060493 706.069881 276.699745 705.921688 C239.014534 705.503658 201.327766 705.226314 163.641670 704.886898 C162.662056 704.878109 161.566139 705.063228 160.723427 704.698299 C156.109657 702.700252 153.401527 704.579647 151.059700 708.605831 C142.881935 722.664791 127.533882 732.360470 110.120887 729.744869 C91.497566 726.947140 75.240486 712.803219 73.207451 692.815304 C72.198524 682.896175 73.778511 673.863033 78.363319 665.212948 C84.784034 653.099056 95.298896 646.844967 108.345436 643.808712 C117.013160 641.791439 125.195228 643.018978 132.716102 647.025875 C140.289344 651.060543 146.397041 657.103206 150.301277 664.925716 C152.270210 668.870724 154.525306 671.007992 159.493416 671.020687 C203.345314 671.132442 247.196541 671.802791 291.047676 671.781002 C310.657539 671.771236 330.277778 670.776668 349.871223 669.790523 C358.331855 669.364681 364.926765 672.187618 370.602852 678.642086 z"/><path class="selected"  fill="#000000" opacity="1.000000" stroke="none" 
 	d="
M1591.602852 906.142086 C1581.761421 915.912716 1570.711860 919.454098 1557.007270 917.145992 C1546.486885 915.374142 1537.004585 912.608517 1529.669868 904.630977 C1527.317451 902.072140 1525.175972 899.229122 1523.423286 896.232418 C1521.396431 892.766842 1519.328315 890.500850 1515.000557 892.655025 C1514.062080 893.122310 1512.747505 892.877926 1511.605537 892.885738 C1462.101387 893.226436 1412.597236 893.563595 1363.093086 893.885860 C1356.749092 893.927242 1356.354805 893.497555 1356.353218 887.173824 C1356.351387 880.177242 1356.445625 873.179073 1356.315254 866.184933 C1356.245918 862.459957 1357.726020 860.887203 1361.520454 860.850826 C1388.203193 860.595333 1414.885322 860.252559 1441.566841 859.883541 C1462.585640 859.593014 1483.604072 859.270382 1504.620674 858.856563 C1509.151802 858.767208 1513.725776 858.518673 1518.172310 857.733517 C1519.732002 857.458248 1521.527900 855.614376 1522.263252 854.041500 C1527.526313 842.784786 1535.915840 834.565914 1547.699409 831.271480 C1568.797920 825.372433 1593.918159 835.589718 1601.759102 858.151363 C1607.735298 875.347530 1605.224067 892.070064 1591.602852 906.142086 z"/><path class="selected"  fill="#000000" opacity="1.000000" stroke="none" 
 	d="
M173.352852 858.892086 C192.201484 858.558712 210.664741 856.792965 228.870063 858.250118 C252.284950 860.124264 275.639991 859.415890 299.018623 859.919796 C306.212471 860.074825 313.397194 860.617183 320.590156 860.864620 C323.711128 860.972042 324.293708 861.558834 323.838936 865.210445 C323.063331 871.438350 323.349830 877.979366 324.355598 884.200313 C325.494087 891.242428 323.913398 893.889156 316.632698 893.891720 C310.970100 893.893673 305.307045 893.941036 299.645027 893.883907 C268.305549 893.567501 236.966896 893.142086 205.626716 892.949459 C197.606392 892.900142 189.583625 893.730099 181.558143 893.823849 C177.203956 893.874508 172.790413 893.529537 168.497047 892.807613 C164.098640 892.067989 161.329719 894.420284 159.438728 897.443600 C150.637184 911.515499 138.050972 919.007076 121.564735 917.726070 C100.279213 916.072017 84.912605 907.017574 79.412849 883.270382 C74.595039 862.467892 84.605354 843.518551 102.616401 833.929195 C121.084419 824.096309 150.090248 830.952633 159.244117 851.315304 C162.105293 857.680050 166.135597 860.275509 173.352852 858.892086 z"/><path class="selected"  fill="#000000" opacity="1.000000" stroke="none" 
 	d="
M1421.352852 1001.892086 C1432.176704 1001.892086 1442.500435 1001.877559 1452.824287 1001.901119 C1455.843452 1001.907955 1457.901313 1001.044185 1459.770332 998.164425 C1467.092964 986.882442 1478.109932 981.254268 1491.077583 978.874752 C1507.270088 975.903438 1519.053047 982.814449 1528.287666 995.363155 C1534.038032 1003.176876 1538.374336 1011.939815 1538.169502 1021.655269 C1537.802559 1039.053463 1528.168037 1055.843380 1507.381294 1061.921383 C1492.311592 1066.327999 1479.421577 1062.149044 1468.185127 1052.060543 C1464.513618 1048.764156 1461.391304 1044.690548 1458.682563 1040.538570 C1456.420967 1037.071895 1454.728584 1035.179928 1449.968086 1036.672359 C1445.601875 1038.041134 1440.656440 1037.827877 1435.964424 1037.846920 C1411.820381 1037.944454 1387.675117 1037.808590 1363.531685 1037.963863 C1358.806831 1037.994259 1357.215645 1036.305172 1357.251045 1031.615352 C1357.305488 1024.429806 1356.661201 1017.239986 1356.363228 1010.050045 C1356.209785 1006.348507 1358.082832 1004.074703 1361.737495 1003.934444 C1381.439766 1003.178097 1401.147163 1002.558712 1421.352852 1001.892086 M1484.352852 1019.392086 C1484.352852 1027.282711 1491.944038 1035.535518 1498.164253 1033.759151 C1503.466743 1032.244869 1508.583198 1029.496090 1510.124946 1023.514400 C1511.435737 1018.428707 1509.683906 1014.271114 1505.670723 1010.494747 C1501.103706 1006.197017 1496.192939 1006.161617 1491.085762 1007.994625 C1486.522651 1009.632198 1484.438423 1013.523189 1484.352852 1019.392086 z"/><path class="selected"  fill="#000000" opacity="1.000000" stroke="none" 
 	d="
M154.602852 1051.642086 C138.327614 1034.666256 139.824684 1001.765255 156.863136 988.212398 C161.781135 984.300533 168.221382 981.662716 174.384651 980.091427 C186.605171 976.975460 198.265449 980.015011 208.467933 987.058712 C212.749122 990.014522 215.646858 994.921627 219.412880 998.703243 C220.819130 1000.115475 222.873329 1000.914913 224.705177 1001.850704 C225.233528 1002.120601 226.016639 1001.885006 226.682808 1001.893184 C253.528419 1002.225216 280.374611 1002.522335 307.219093 1002.929806 C311.415809 1002.993404 315.696785 1003.162105 319.749366 1004.100338 C321.233436 1004.443966 323.063362 1007.096065 323.189735 1008.809200 C323.617469 1014.607418 323.269722 1020.458492 323.397957 1026.285518 C323.442756 1028.321407 324.310157 1030.352779 324.262336 1032.373653 C324.197609 1035.109859 323.814766 1037.909420 319.917244 1037.905758 C291.934150 1037.880123 263.951057 1037.897945 235.967994 1037.865841 C235.054573 1037.864742 234.146278 1037.452022 233.227607 1037.271847 C229.473243 1036.535885 226.303108 1036.489132 223.972664 1040.649532 C216.604896 1053.802730 204.256111 1060.758785 190.292335 1063.560055 C179.576881 1065.709713 168.998573 1062.027828 159.752662 1055.760372 C158.034706 1054.595821 156.481849 1053.187862 154.602852 1051.642086 M170.852882 1013.892086 C170.686195 1016.312618 170.598915 1018.741695 170.337043 1021.151851 C169.715675 1026.871334 173.018654 1030.244381 177.536842 1032.475826 C182.894447 1035.121944 187.594398 1034.406612 191.343055 1030.281612 C194.843818 1026.429439 197.397072 1022.018307 195.354194 1016.371456 C193.164741 1010.319698 188.434333 1007.158443 182.512397 1007.117672 C178.192451 1007.087887 173.253639 1008.101070 170.852882 1013.892086 z"/><path class="selected"  fill="#000000" opacity="1.000000" stroke="none" 
 	d="
M320.602852 783.642086 C321.686195 787.538082 322.974189 791.148678 323.259987 794.837154 C323.891853 802.990841 323.937629 811.188106 324.383979 819.358761 C324.644813 824.133297 322.233436 826.757442 317.362770 826.919552 C310.622535 827.143795 303.874977 827.392330 297.156288 827.943844 C291.589088 828.400875 288.214515 825.795284 286.843879 820.806515 C283.700569 809.365719 282.641578 797.743160 286.550758 786.306759 C287.209938 784.378414 290.399391 782.241085 292.551094 782.091549 C299.998573 781.574215 307.506111 781.797848 314.985969 781.960689 C316.784492 781.999752 318.564399 782.892086 320.602852 783.642086 z"/><path class="selected"  fill="#000000" opacity="1.000000" stroke="none" 
 	d="
M1358.602852 784.142086 C1360.934150 782.891964 1362.958687 781.206783 1365.108223 781.028683 C1370.230537 780.604488 1375.455269 780.481075 1380.555732 781.020626 C1384.731392 781.462520 1388.060859 783.407833 1389.506172 788.261593 C1390.992134 793.251705 1390.889106 798.033932 1390.406196 803.041256 C1389.844062 808.870357 1390.162178 814.817623 1389.208687 820.565914 C1388.385688 825.526851 1384.386909 827.765621 1379.457588 827.865475 C1373.803291 827.980099 1368.144966 827.895382 1362.488350 827.890987 C1358.229561 827.887691 1356.324165 825.670894 1356.341499 821.495968 C1356.378608 812.512081 1356.173896 803.522701 1356.444526 794.546871 C1356.547065 791.145748 1357.686226 787.776119 1358.602852 784.142086 z"/></svg>